<svg id="Layer_1" data-name="Layer 1" xmlns="http://www.w3.org/2000/svg" viewBox="0 0 550.71 543.66"><defs><style>.cls-1{fill:#fff;}</style></defs><path class="cls-1" d="M45.7,245.16,77.39,214.4,263.62,400.94c-13,12.54-26.69,26-40.65,39-19.37,18.15-37.66,37.83-58.82,53.62-27.68,20.64-59.25,25.58-90.12,6.61-32.62-20-54.44-48-51.48-88.91,2-27.72,17.47-48.91,35.92-68l28.26,27.93c-4.59,6.23-9.8,12.27-13.85,19-9.95,16.52-11.83,33.7-.65,50.36s25.49,28.92,47.38,27.05c13.09-1.12,24.44-7.17,33.48-16.11,16.56-16.37,32.15-33.73,48.31-50.85Z" transform="translate(-22.28 -124.84)"/><path class="cls-1" d="M536.35,449.19c-9.68-9.73-18.73-18.82-27.92-28.07,4.39-5.92,9.38-11.73,13.38-18.17,19.19-30.86.63-71.93-35.34-78.08-15.06-2.57-28.68,2.52-39.64,12.22-18.86,16.69-36.71,34.52-55,51.86l158,157.51-31.79,31.31L332.46,391.53c9.21-9,19.72-19.31,30.28-29.58C382.18,343,401,323.36,421.33,305.44c16.95-14.93,37.09-24.15,60.52-24.31,13.82-.09,26.78,3,38.41,10.23,28.84,17.86,49.45,41.82,52.51,77.05.79,9.06-.62,18.7-3,27.56C564.28,416.89,551.76,433.78,536.35,449.19Z" transform="translate(-22.28 -124.84)"/><path class="cls-1" d="M294.1,306l157-157.38,30.58,31.22q-91,91.16-185.69,186.09c-8.31-8.85-16.81-18-25.48-27.07-21.25-22.15-43.69-43.27-63.55-66.59-18.07-21.21-26.57-46.62-20-75.1,14.36-62.16,86-92,139.58-58.07,9.42,6,17.85,13.51,26.64,20.26l-29.09,28.26c-5.51-4-12-9.36-19.16-13.61-15.77-9.36-32.24-11.07-48.21-.8-16.32,10.49-28.75,24.05-28.45,45.09.18,13.2,5.87,24.7,14.49,34.14C259.16,270.35,276.39,287.57,294.1,306Z" transform="translate(-22.28 -124.84)"/><path class="cls-1" d="M144.36,645.84l-31.54-31.71L299.66,426.91c12.34,12.84,25.25,26.17,38,39.61,17.38,18.24,36.11,35.44,51.66,55.14,20.93,26.5,28.58,56.57,13.31,89.17-16.53,35.3-54.08,59.1-90.5,57.6-22.53-.93-52.24-16.56-69.42-36.42L271,604.39c4.76,3.6,10.14,8.24,16,12.06,29.84,19.29,67.65,5.26,78.15-28.94,4.85-15.78.45-30.15-9.08-42.55-8.3-10.82-18.14-20.49-27.56-30.41-8.68-9.15-17.72-17.95-26.83-27.14Z" transform="translate(-22.28 -124.84)"/></svg>